<?xml version="1.0" encoding="iso-8859-1"?>
<!-- Generator: Adobe Illustrator 19.0.0, SVG Export Plug-In . SVG Version: 6.00 Build 0)  -->
<svg version="1.1" id="Layer_1" xmlns="http://www.w3.org/2000/svg" xmlns:xlink="http://www.w3.org/1999/xlink" x="0px" y="0px"
	 viewBox="0 0 512 512" style="enable-background:new 0 0 512 512;" xml:space="preserve">
<g>
	<g>
		<g>
			<path d="M260.323,132.846c-17.661-17.661-46.398-17.661-64.059-0.001c-17.661,17.661-17.661,46.398,0,64.059L255.359,256
				l-59.095,59.096c-17.661,17.661-17.661,46.398,0,64.059c8.555,8.555,19.931,13.267,32.03,13.267
				c12.1,0,23.475-4.712,32.03-13.267l91.124-91.125c17.66-17.66,17.66-46.398,0-64.059L260.323,132.846z M340.142,276.725
				l-91.124,91.125c-5.535,5.536-12.896,8.585-20.725,8.585s-15.189-3.048-20.725-8.584c-11.428-11.428-11.428-30.023,0-41.45
				l64.747-64.748c3.122-3.122,3.122-8.183,0-11.304l-64.747-64.748c-11.428-11.428-11.428-30.023,0-41.45
				c5.714-5.714,13.219-8.57,20.725-8.57c7.505,0,15.012,2.857,20.726,8.571l91.123,91.125c5.536,5.536,8.585,12.896,8.585,20.725
				C348.727,263.831,345.678,271.189,340.142,276.725z"/>
			<path d="M256.002,61.536c-107.227,0-194.464,87.236-194.464,194.463s87.236,194.463,194.464,194.463
				c107.226,0,194.463-87.236,194.463-194.463S363.227,61.536,256.002,61.536z M256.002,434.475
				c-98.412,0-178.477-80.064-178.477-178.475S157.589,77.523,256.002,77.523c98.411,0,178.475,80.064,178.475,178.477
				S354.413,434.475,256.002,434.475z"/>
			<path d="M437.02,74.98C388.668,26.628,324.38,0,256.002,0C187.621,0,123.333,26.628,74.981,74.98
				C26.629,123.333,0.001,187.62,0.001,256s26.629,132.667,74.98,181.02S187.621,512,256.001,512s132.666-26.628,181.018-74.98
				c48.351-48.352,74.98-112.64,74.98-181.02S485.371,123.333,437.02,74.98z M425.714,425.715
				c-45.332,45.333-105.604,70.298-169.714,70.298c-64.11,0-124.383-24.965-169.715-70.298
				C40.953,380.382,15.988,320.109,15.988,256S40.953,131.617,86.286,86.285c45.332-45.333,105.605-70.298,169.716-70.298
				c64.109,0,124.382,24.965,169.713,70.298C471.048,131.617,496.013,191.89,496.013,256S471.048,380.382,425.714,425.715z"/>
		</g>
	</g>
</g>
<g>
</g>
<g>
</g>
<g>
</g>
<g>
</g>
<g>
</g>
<g>
</g>
<g>
</g>
<g>
</g>
<g>
</g>
<g>
</g>
<g>
</g>
<g>
</g>
<g>
</g>
<g>
</g>
<g>
</g>
</svg>
